<svg width="40" height="40" viewBox="0 0 40 40" fill="none" xmlns="http://www.w3.org/2000/svg">
<path d="M18.5771 11.705C19.2105 10.5667 19.5271 10 20.0005 10C20.4738 10 20.7905 10.5667 21.4238 11.705L21.5871 11.9983C21.7671 12.3217 21.8571 12.4817 21.9971 12.5883C22.1388 12.695 22.3138 12.735 22.6638 12.8133L22.9805 12.8867C24.2105 13.165 24.8255 13.3033 24.9721 13.7733C25.1188 14.245 24.6988 14.735 23.8605 15.715L23.6438 15.9683C23.4055 16.2467 23.2855 16.385 23.2321 16.5583C23.1788 16.7317 23.1971 16.9167 23.2321 17.2883L23.2655 17.6267C23.3921 18.935 23.4555 19.59 23.0738 19.88C22.6905 20.17 22.1138 19.905 20.9621 19.375L20.6655 19.2383C20.3371 19.0883 20.1738 19.0133 20.0005 19.0133C19.8271 19.0133 19.6638 19.0883 19.3355 19.2383L19.0388 19.375C17.8871 19.9067 17.3105 20.17 16.9271 19.88C16.5438 19.59 16.6088 18.935 16.7355 17.6267L16.7688 17.2883C16.8038 16.9167 16.8221 16.7317 16.7688 16.5583C16.7155 16.3867 16.5955 16.2467 16.3571 15.9683L16.1405 15.715C15.3021 14.735 14.8821 14.245 15.0288 13.7733C15.1755 13.3033 15.7905 13.165 17.0205 12.8867L17.3371 12.8133C17.6871 12.735 17.8621 12.6967 18.0038 12.5883C18.1438 12.4817 18.2338 12.3217 18.4138 11.9983L18.5771 11.705Z" stroke="#D5AC5B" stroke-width="2.5"/>
<path d="M12.2514 25L11.1898 28.8717C10.1431 32.6917 9.61976 34.6017 10.3181 35.6467C10.5631 36.0133 10.8914 36.3067 11.2731 36.5017C12.3598 37.055 14.0398 36.18 17.3981 34.43C18.5148 33.8467 19.0748 33.5567 19.6681 33.4933C19.8886 33.4697 20.1109 33.4697 20.3314 33.4933C20.9248 33.5567 21.4831 33.8483 22.6014 34.43C25.9598 36.18 27.6398 37.055 28.7264 36.5017C29.1081 36.3067 29.4364 36.0133 29.6814 35.6467C30.3814 34.6017 29.8564 32.6917 28.8098 28.8717L27.7481 25" stroke="#D5AC5B" stroke-width="2.5" stroke-linecap="round"/>
<path d="M9.16673 10.6616C8.16801 13.1563 8.06112 15.9194 8.86411 18.4838C9.6671 21.0483 11.3307 23.2569 13.5739 24.7365C15.8171 26.2161 18.5023 26.876 21.1758 26.6046C23.8493 26.3333 26.3471 25.1473 28.2473 23.2472C30.1475 21.347 31.3334 18.8492 31.6048 16.1757C31.8761 13.5022 31.2162 10.817 29.7366 8.57381C28.257 6.33062 26.0484 4.66698 23.4839 3.86398C20.9195 3.06099 18.1565 3.16789 15.6617 4.16661" stroke="#D5AC5B" stroke-width="2.5" stroke-linecap="round"/>
</svg>
