<svg width="40" height="40" viewBox="0 0 40 40" fill="none" xmlns="http://www.w3.org/2000/svg">
<path d="M19.9998 37.0757C29.3248 37.0757 37.0755 29.3415 37.0755 20C37.0755 10.675 29.3077 2.92432 19.9827 2.92432C10.6419 2.92432 2.9248 10.675 2.9248 20C2.9248 29.3415 10.6584 37.0757 19.9998 37.0757ZM20.0005 34.23C12.0977 34.23 5.78552 27.9015 5.78552 20C5.78552 12.1143 12.0805 5.77003 19.9827 5.77003C27.8677 5.77003 34.2119 12.115 34.2291 20C34.2455 27.9022 27.8841 34.23 19.9991 34.23M15.8977 12.5336C13.0184 12.5336 10.9255 14.71 10.9255 17.7229C10.9255 22.21 15.6798 26.3279 19.1619 28.555C19.4469 28.7222 19.8148 28.9565 20.0327 28.9565C20.2498 28.9565 20.5684 28.7222 20.8362 28.555C24.3184 26.3279 29.0562 22.21 29.0562 17.7236C29.0562 14.7093 26.9798 12.5336 24.0841 12.5336C22.2927 12.5336 20.8362 13.5715 19.9984 15.1286C19.1455 13.5715 17.7219 12.5336 15.8977 12.5336Z" fill="#D5AC5B"/>
</svg>
