<svg width="40" height="40" viewBox="0 0 40 40" fill="none" xmlns="http://www.w3.org/2000/svg">
<path fill-rule="evenodd" clip-rule="evenodd" d="M5 16C5.26522 16 5.51957 16.1054 5.70711 16.2929C5.89464 16.4804 6 16.7348 6 17V34H34V17C34 16.7348 34.1054 16.4804 34.2929 16.2929C34.4804 16.1054 34.7348 16 35 16C35.2652 16 35.5196 16.1054 35.7071 16.2929C35.8946 16.4804 36 16.7348 36 17V35C36 35.2652 35.8946 35.5196 35.7071 35.7071C35.5196 35.8946 35.2652 36 35 36H5C4.73478 36 4.48043 35.8946 4.29289 35.7071C4.10536 35.5196 4 35.2652 4 35V17C4 16.7348 4.10536 16.4804 4.29289 16.2929C4.48043 16.1054 4.73478 16 5 16Z" fill="#D5AC5B"/>
<path fill-rule="evenodd" clip-rule="evenodd" d="M6 11C6 10.7348 6.10536 10.4804 6.29289 10.2929C6.48043 10.1054 6.73478 10 7 10H33C33.2652 10 33.5196 10.1054 33.7071 10.2929C33.8946 10.4804 34 10.7348 34 11V20.34C33.9999 20.5047 33.9592 20.6668 33.8814 20.8119C33.8035 20.9571 33.6911 21.0808 33.554 21.172L20.554 29.832C20.3899 29.9412 20.1971 29.9995 20 29.9995C19.8029 29.9995 19.6101 29.9412 19.446 29.832L6.446 21.172C6.3089 21.0808 6.19645 20.9571 6.11865 20.8119C6.04084 20.6668 6.00009 20.5047 6 20.34V11ZM8 12V19.804L20 27.798L32 19.804V12H8Z" fill="#D5AC5B"/>
<path fill-rule="evenodd" clip-rule="evenodd" d="M19.446 4.16797C19.6101 4.05876 19.8029 4.00049 20 4.00049C20.1971 4.00049 20.3899 4.05876 20.554 4.16797L29.554 10.168L28.446 11.832L20 6.20197L11.554 11.832L10.446 10.168L19.446 4.16797ZM33.708 14.292L35.708 16.292L34.292 17.708L32.292 15.708L33.708 14.292ZM7.70799 15.708L5.70799 17.708L4.29199 16.292L6.29199 14.292L7.70799 15.708ZM13.5 16C13.5 15.8674 13.5527 15.7402 13.6464 15.6464C13.7402 15.5526 13.8674 15.5 14 15.5H26C26.1326 15.5 26.2598 15.5526 26.3535 15.6464C26.4473 15.7402 26.5 15.8674 26.5 16C26.5 16.1326 26.4473 16.2598 26.3535 16.3535C26.2598 16.4473 26.1326 16.5 26 16.5H14C13.8674 16.5 13.7402 16.4473 13.6464 16.3535C13.5527 16.2598 13.5 16.1326 13.5 16ZM14.5 20C14.5 19.8674 14.5527 19.7402 14.6464 19.6464C14.7402 19.5526 14.8674 19.5 15 19.5H25C25.1326 19.5 25.2598 19.5526 25.3535 19.6464C25.4473 19.7402 25.5 19.8674 25.5 20C25.5 20.1326 25.4473 20.2598 25.3535 20.3535C25.2598 20.4473 25.1326 20.5 25 20.5H15C14.8674 20.5 14.7402 20.4473 14.6464 20.3535C14.5527 20.2598 14.5 20.1326 14.5 20Z" fill="#D5AC5B"/>
</svg>
