<svg width="40" height="40" viewBox="0 0 40 40" fill="none" xmlns="http://www.w3.org/2000/svg">
<path d="M12.0279 9.70391L16.0404 5.69141L20.0529 9.70391L16.0404 13.7164L12.0279 9.70391ZM9.70293 20.0539L5.69043 16.0414L9.70293 12.0289L13.7154 16.0414L9.70293 20.0539Z" fill="#D5AC5B"/>
<path d="M17.2791 3.01636L26.6866 12.4364L26.7866 12.3364C26.9837 12.1435 27.2476 12.0341 27.5233 12.0311C27.7991 12.028 28.0654 12.1316 28.2666 12.3201L28.2741 12.3276L29.3579 13.4114C29.7391 13.7926 29.7516 14.3739 29.4616 14.7789L29.4566 14.7876L29.2779 15.0276L36.9779 22.7276C37.6654 23.4151 37.6654 24.5151 36.9779 25.2026L25.1904 36.9901C24.5029 37.6776 23.4029 37.6776 22.7154 36.9901L17.1566 31.4314C17.0643 31.5477 16.9484 31.6432 16.8165 31.7116C16.6846 31.7799 16.5398 31.8196 16.3915 31.828C16.2432 31.8364 16.0948 31.8133 15.9561 31.7602C15.8174 31.7071 15.6914 31.6253 15.5866 31.5201L12.3366 28.2701C12.1437 28.073 12.0343 27.8091 12.0313 27.5334C12.0283 27.2576 12.1318 26.9914 12.3204 26.7901L12.3279 26.7814L12.4241 26.6864L3.0166 17.2789C2.3291 16.5914 2.3291 15.4914 3.0166 14.8039L14.8041 3.01636C15.4916 2.32886 16.5916 2.32886 17.2791 3.01636ZM25.5041 13.6164L23.3104 11.4226C23.2414 11.3515 23.1588 11.2949 23.0675 11.2563C22.9763 11.2177 22.8782 11.1978 22.7791 11.1978C22.68 11.1978 22.5819 11.2177 22.4907 11.2563C22.3994 11.2949 22.3168 11.3515 22.2479 11.4226L17.7729 15.8976C17.702 15.968 17.6457 16.0518 17.6073 16.144C17.5689 16.2363 17.5491 16.3352 17.5491 16.4351C17.5491 16.535 17.5689 16.634 17.6073 16.7262C17.6457 16.8185 17.702 16.9022 17.7729 16.9726L19.9591 19.1589L20.7216 18.3964L18.7654 16.4401L22.7779 12.4151L24.7391 14.3826L25.5041 13.6164ZM19.1604 19.9564L16.9679 17.7639C16.8989 17.6927 16.8163 17.6362 16.725 17.5975C16.6338 17.5589 16.5357 17.539 16.4366 17.539C16.3375 17.539 16.2394 17.5589 16.1482 17.5975C16.0569 17.6362 15.9743 17.6927 15.9054 17.7639L11.4304 22.2389L11.4241 22.2451L11.4179 22.2514C11.1179 22.5389 11.1179 23.0139 11.4179 23.3139L13.6079 25.5039L14.3779 24.7339L12.4154 22.7789L16.4404 18.7664L18.3954 20.7201L19.1604 19.9564ZM11.0279 10.2414L15.5029 14.7164C15.8029 15.0164 16.2779 15.0164 16.5654 14.7039L21.0404 10.2289C21.1115 10.1611 21.1681 10.0797 21.2067 9.98945C21.2454 9.8992 21.2654 9.80204 21.2654 9.70386H21.2779C21.2779 9.51636 21.2029 9.31636 21.0529 9.16636L16.5779 4.69136C16.5075 4.62031 16.4238 4.5639 16.3316 4.52541C16.2393 4.48691 16.1403 4.46709 16.0404 4.46709C15.9404 4.46709 15.8414 4.48691 15.7491 4.52541C15.6569 4.5639 15.5732 4.62031 15.5029 4.69136L11.0279 9.17886C10.7279 9.46636 10.7279 9.94136 11.0279 10.2414ZM4.69035 16.5789L9.16535 21.0539C9.46535 21.3539 9.94035 21.3539 10.2279 21.0539L14.7029 16.5789C14.7755 16.5097 14.833 16.4262 14.8717 16.3337C14.9105 16.2412 14.9296 16.1416 14.9279 16.0414H14.9404C14.9404 15.8414 14.8654 15.6539 14.7154 15.5039L10.2404 11.0289C10.1714 10.9577 10.0888 10.9012 9.99754 10.8625C9.90628 10.8239 9.8082 10.804 9.7091 10.804C9.61001 10.804 9.51192 10.8239 9.42066 10.8625C9.32941 10.9012 9.24684 10.9577 9.17785 11.0289L4.69035 15.5164C4.39035 15.8039 4.39035 16.2789 4.69035 16.5789ZM13.3566 27.5214L16.3091 30.4751L28.3541 14.1751L27.5354 13.3564L13.3566 27.5214Z" fill="#D5AC5B"/>
</svg>
