<svg width="40" height="40" viewBox="0 0 40 40" fill="none" xmlns="http://www.w3.org/2000/svg">
<path d="M16.7993 13.1616C18.5943 9.94325 19.491 8.33325 20.8326 8.33325C22.1743 8.33325 23.071 9.94325 24.866 13.1616L25.3293 13.9949C25.8393 14.9099 26.096 15.3666 26.4926 15.6683C26.8893 15.9699 27.3843 16.0816 28.376 16.3066L29.276 16.5099C32.761 17.2983 34.5043 17.6933 34.9176 19.0266C35.3326 20.3599 34.1443 21.7483 31.7676 24.5266L31.1543 25.2433C30.4793 26.0333 30.1426 26.4283 29.9893 26.9166C29.8393 27.4049 29.8893 27.9316 29.991 28.9833L30.0843 29.9433C30.4443 33.6499 30.6226 35.5033 29.5376 36.3266C28.4526 37.1516 26.821 36.3999 23.5593 34.8982L22.7143 34.5083C21.7876 34.0816 21.3243 33.8682 20.8326 33.8682C20.341 33.8682 19.8776 34.0816 18.9493 34.5083L18.106 34.8982C14.8443 36.3982 13.2126 37.1516 12.1276 36.3266C11.0426 35.5033 11.2226 33.6499 11.581 29.9433L11.6743 28.9849C11.776 27.9316 11.8276 27.4049 11.6743 26.9182C11.5243 26.4282 11.186 26.0349 10.511 25.2449L9.89595 24.5249C7.52095 21.7483 6.33262 20.3583 6.74595 19.0249C7.16262 17.6916 8.90429 17.2983 12.3893 16.5099L13.2893 16.3066C14.281 16.0816 14.776 15.9699 15.1726 15.6683C15.571 15.3683 15.826 14.9099 16.336 13.9949L16.7993 13.1616Z" stroke="#D5AC5B" stroke-width="2.5"/>
<path d="M8.31634 3.33325C8.31634 3.33325 8.79634 5.76325 9.84967 6.80825C10.8997 7.85325 13.333 8.31658 13.333 8.31658C13.333 8.31658 10.903 8.79658 9.85801 9.84992C8.81301 10.8999 8.34967 13.3333 8.34967 13.3333C8.34967 13.3333 7.86967 10.9033 6.81634 9.85825C5.76634 8.81325 3.33301 8.34992 3.33301 8.34992C3.33301 8.34992 5.76301 7.86992 6.80801 6.81659C7.85301 5.76659 8.31634 3.33325 8.31634 3.33325Z" stroke="#D5AC5B" stroke-width="1.66667" stroke-linejoin="round"/>
<path d="M30 8.33317H33.3333M31.6667 9.99984V6.6665" stroke="#D5AC5B" stroke-width="2.5" stroke-linecap="round"/>
</svg>
