<svg width="94" height="96" viewBox="0 0 94 96" fill="none" xmlns="http://www.w3.org/2000/svg">
<path d="M11.0341 18.2735L9.21289 20.6534L14.9834 25.0709L16.4737 23.1237C16.6852 22.8477 19.1797 19.8752 16.0652 17.4905C13.5464 15.5627 11.8511 17.2079 11.0341 18.2735ZM16.3138 23.0285L15.3354 24.3056L9.86841 20.1206L10.9227 18.7418C11.7252 17.6955 13.2929 16.4458 15.5437 18.1702C17.7863 19.8865 17.2777 21.7707 16.3138 23.0285Z" fill="black"/>
<path d="M18.8116 10.0515C17.1873 11.356 16.4042 13.4098 18.085 15.5039C20.0209 17.9129 22.4444 16.9005 23.5811 15.9867C24.708 15.0809 26.2274 12.9254 24.2931 10.5165C22.6107 8.42396 20.4262 8.75333 18.8116 10.0515ZM23.4583 15.8333C22.4379 16.6535 20.6506 17.3478 18.7438 14.9743C16.8676 12.638 18.0527 10.8991 18.9278 10.1952C19.8029 9.49281 21.7566 8.70974 23.6343 11.046C25.5395 13.4179 24.4675 15.0228 23.4583 15.8333Z" fill="black"/>
<path d="M29.9822 3.49182L31.9294 7.52344C32.8917 9.51422 32.0924 10.4394 30.9041 11.0142C29.1442 11.8651 28.2804 10.3167 27.922 9.57719L25.928 5.45031L25.1885 5.80714L27.1825 9.93401C28.2094 12.0588 29.6496 11.9555 30.8799 11.3613C32.5461 10.5556 32.9837 9.25104 32.1522 7.53151L30.1582 3.40625L29.9822 3.49182Z" fill="black"/>
<path d="M41.0172 7.08085C41.0172 7.08085 40.4295 7.92044 39.1281 8.2482C37.8704 8.56466 35.9458 8.45163 35.2031 5.50018C34.4717 2.59231 36.2752 1.50731 37.3634 1.23283C38.689 0.900229 39.5512 1.24414 39.5512 1.24414L39.4882 0.997104C39.4882 0.997104 38.5986 0.732312 37.3182 1.05361C35.2983 1.56221 33.729 3.10252 34.3845 5.70523C35.1369 8.7019 37.6605 8.81976 39.0749 8.46455C40.4779 8.11096 41.0802 7.32788 41.0802 7.32788L41.0172 7.08085Z" fill="black"/>
<path d="M46.5458 0.188363L46.5345 0.00268555L42.8968 0.240029L42.8613 0.241644L43.3344 7.49435L47.006 7.25539L46.9947 7.06972L44.1417 7.25539L43.914 3.74529L46.4538 3.5806L46.4425 3.39493L43.9011 3.56123L43.6945 0.37404L46.5458 0.188363Z" fill="black"/>
<path d="M55.2473 0.589323L54.7517 5.04073C54.5063 7.23656 53.3373 7.59661 52.0263 7.44969C50.0823 7.23333 50.1743 5.46214 50.2647 4.64516L50.7733 0.0920312L49.9564 0L49.4494 4.55474C49.1878 6.90073 50.4633 7.57885 51.8196 7.73062C53.6602 7.93406 54.7242 7.0638 54.9357 5.16505L55.4427 0.611927L55.2473 0.589323Z" fill="black"/>
<path d="M61.6515 9.82896L60.0757 5.74891C60.9282 5.89261 62.2893 5.8813 62.7333 4.45724C63.2096 2.93146 61.6176 2.2049 61.0542 2.02891C60.5133 1.86099 58.9552 1.375 58.9552 1.375L56.79 8.31125L57.5747 8.55667L58.5806 5.33073L59.0892 5.48896L60.6457 9.51412L61.6515 9.82896ZM59.685 1.79641L60.5795 2.07573C61.7064 2.42609 62.2344 3.10099 61.8566 4.31677C61.4691 5.55354 60.5359 5.74729 59.2442 5.34365L58.6371 5.15474L59.685 1.79641Z" fill="black"/>
<path d="M73.9161 8.2929L71.4716 6.55884L67.2656 12.486L69.2677 13.9052C69.5503 14.107 72.6115 16.4918 74.8816 13.2917C76.7158 10.7051 75.0108 9.06951 73.9161 8.2929ZM69.3549 13.7405L68.0439 12.8105L72.0286 7.19498L73.443 8.19925C74.5199 8.96295 75.8245 10.4839 74.1825 12.796C72.5502 15.0984 70.6482 14.6592 69.3549 13.7405Z" fill="black"/>
<path d="M78.4493 13.8336L80.763 13.585L80.2286 13.0554L78.3428 13.7271L78.4493 13.8336Z" fill="black"/>
<path d="M85.2692 19.4151C84.0712 17.7117 82.0708 16.7962 79.8749 18.3398C77.3465 20.1158 78.2006 22.599 79.0386 23.7922C79.8701 24.9773 81.9222 26.6306 84.4507 24.8546C86.6481 23.3111 86.4592 21.1104 85.2692 19.4151ZM79.1984 23.6792C78.4476 22.6103 77.8696 20.781 80.3609 19.0308C82.8135 17.308 84.4716 18.6029 85.1175 19.5216C85.7633 20.4403 86.4188 22.4408 83.9663 24.1636C81.475 25.9138 79.9444 24.74 79.1984 23.6792Z" fill="#D5AC5B"/>
<path d="M84.3105 33.5485L86.4353 29.7268C86.8696 30.4728 87.7511 31.5109 89.13 30.941C90.6057 30.3291 90.1456 28.6418 89.9195 28.0961C89.7016 27.573 89.0783 26.0649 89.0783 26.0649L82.3633 28.8453L82.6781 29.6041L85.7991 28.3108L86.0026 28.8033L83.9084 32.5766L84.3105 33.5485ZM89.2204 26.8948L89.5805 27.7603C90.0309 28.8517 89.8517 29.6897 88.6763 30.1757C87.4783 30.6713 86.7323 30.0788 86.2141 28.8291L85.9703 28.2398L89.2204 26.8948Z" fill="#D5AC5B"/>
<path d="M84.8945 35.7745L85.1012 36.5705L92.1359 34.746L91.9293 33.9517L84.8945 35.7745Z" fill="black"/>
<path d="M93.1784 41.7931L93.3625 41.7688L92.8878 38.1554L92.883 38.1199L85.6787 39.066L86.1566 42.715L86.3407 42.6908L85.9693 39.8572L89.4568 39.3986L89.7878 41.9222L89.9719 41.8996L89.6409 39.3744L92.8071 38.9595L93.1784 41.7931Z" fill="black"/>
<path d="M93.3005 51.1381L93.3085 50.9524L87.1602 50.6392L93.738 45.274V45.2513L86.3416 44.8735L86.3319 45.0592L92.4124 45.3692L85.8362 50.7232L85.833 50.7571L93.3005 51.1381Z" fill="black"/>
<path d="M91.4499 59.727L92.7545 54.591L92.5753 54.5442L92.0247 56.7093L85.1611 54.9672L84.9561 55.7745L91.8196 57.5166L91.2707 59.6818L91.4499 59.727Z" fill="black"/>
<mask id="mask0_219_601" style="mask-type:luminance" maskUnits="userSpaceOnUse" x="0" y="28" width="91" height="68">
<path d="M0 28.7817H90.1067V95.7417H0V28.7817Z" fill="white"/>
</mask>
<g mask="url(#mask0_219_601)">
<mask id="mask1_219_601" style="mask-type:luminance" maskUnits="userSpaceOnUse" x="-16" y="29" width="107" height="84">
<path d="M69.7858 112.758L-15.75 74.7004L4.53886 29.1013L90.0746 67.157L69.7858 112.758Z" fill="white"/>
</mask>
<g mask="url(#mask1_219_601)">
<mask id="mask2_219_601" style="mask-type:luminance" maskUnits="userSpaceOnUse" x="-16" y="29" width="107" height="84">
<path d="M69.7858 112.758L-15.75 74.7004L4.53886 29.1013L90.0746 67.157L69.7858 112.758Z" fill="white"/>
</mask>
<g mask="url(#mask2_219_601)">
<mask id="mask3_219_601" style="mask-type:luminance" maskUnits="userSpaceOnUse" x="-16" y="29" width="107" height="84">
<path d="M69.7858 112.758L-15.75 74.7004L4.53886 29.1013L90.0746 67.157L69.7858 112.758Z" fill="white"/>
</mask>
<g mask="url(#mask3_219_601)">
<path d="M89.9744 67.1571C89.3851 68.5683 88.7296 69.9487 88.0079 71.2985C87.2813 72.6451 86.4853 73.9561 85.6263 75.2284C83.8955 77.7811 81.9273 80.1368 79.7218 82.2955C77.505 84.4525 75.0976 86.3707 72.5014 88.0531C71.2049 88.8926 69.8664 89.6644 68.4908 90.3684C67.1151 91.0723 65.7072 91.7069 64.267 92.2736C62.8268 92.8387 61.3592 93.336 59.8657 93.7638C58.3754 94.1852 56.8674 94.5308 55.3384 94.802C53.4267 95.1411 51.5021 95.3607 49.5614 95.4624C47.6223 95.5625 45.6848 95.5431 43.7473 95.4026C41.8098 95.2638 39.8884 95.0055 37.9832 94.6276C36.078 94.2498 34.2035 93.7558 32.3596 93.1455C30.5158 92.5351 28.7155 91.8134 26.9605 90.9819C25.2054 90.1488 23.5085 89.2107 21.8713 88.1677C20.2325 87.1247 18.6647 85.9832 17.1664 84.7464C15.6697 83.5096 14.2553 82.1841 12.9217 80.7713C10.792 78.5028 8.90619 76.0486 7.26093 73.4088C6.43911 72.0929 5.68671 70.7399 5.00051 69.3497C4.31916 67.9612 3.70723 66.5404 3.16312 65.0888C2.62062 63.6373 2.14916 62.1665 1.75197 60.6762C1.35156 59.1827 1.03025 57.6731 0.786452 56.1473C0.295619 53.0925 0.109942 50.0216 0.229421 46.9312C0.353744 43.849 0.786452 40.8104 1.5227 37.8153C1.89244 36.3267 2.33322 34.859 2.84666 33.414C3.3601 31.9689 3.94781 30.5578 4.60656 29.1821C4.61786 29.1563 4.63723 29.1482 4.66307 29.1595C4.69051 29.1724 4.69697 29.1902 4.68567 29.2177C3.44406 32.0125 2.48499 34.901 1.80848 37.8831C1.55822 38.9988 1.34671 40.1209 1.1788 41.2528C1.00927 42.383 0.883327 43.5196 0.797754 44.6595C0.713796 45.7994 0.670202 46.9409 0.670202 48.0841C0.668588 49.2288 0.710567 50.3703 0.794525 51.5102C0.876869 52.6517 1.00281 53.7868 1.17072 54.9186C1.33703 56.0504 1.54692 57.1725 1.79718 58.2898C2.04744 59.4055 2.33807 60.5099 2.66906 61.6046C3.00166 62.6993 3.37301 63.781 3.78473 64.8483C4.19645 65.9155 4.64692 66.9666 5.13453 67.9999C5.62374 69.0349 6.1501 70.0505 6.7152 71.045C7.27869 72.0412 7.8777 73.0148 8.51385 73.9658C9.14838 74.9168 9.81843 75.8436 10.5224 76.7461C11.2263 77.6487 11.9626 78.5238 12.7311 79.3714C13.4997 80.2191 14.2989 81.0377 15.1272 81.8272C15.9555 82.6168 16.8128 83.374 17.6976 84.1006C18.5824 84.8271 19.4914 85.5198 20.4279 86.1785C22.9305 87.9368 25.58 89.4384 28.3748 90.6816C31.1697 91.9248 34.0582 92.8887 37.0403 93.5701C40.0241 94.2498 43.0433 94.6309 46.1013 94.7116C47.6271 94.752 49.1513 94.7164 50.6738 94.6067C52.1964 94.4969 53.7093 94.3128 55.2141 94.0561C56.7172 93.7977 58.2059 93.4668 59.6768 93.0631C61.1493 92.6595 62.5975 92.1848 64.0216 91.639C65.4473 91.0949 66.8423 90.4798 68.2066 89.7984C69.5709 89.1155 70.8981 88.3695 72.1898 87.5574C73.4815 86.7436 74.7295 85.8701 75.9356 84.9369C77.1401 84.0021 78.2978 83.0107 79.4054 81.9629C81.6254 79.8607 83.6178 77.5615 85.3809 75.0637C87.1441 72.5644 88.6488 69.9165 89.8953 67.1216C89.9066 67.0958 89.926 67.0893 89.9518 67.1006C89.9776 67.1119 89.9841 67.1313 89.9744 67.1571Z" fill="#D5AC5B"/>
</g>
</g>
</g>
</g>
<path d="M47.0369 49.752C46.9009 49.3165 46.8341 48.9405 46.8341 48.6238C46.8341 48.3046 46.8501 47.9434 46.8835 47.5401C46.9194 47.1381 46.9949 46.5851 47.1112 45.8824C47.2299 45.1773 47.4551 44.4808 47.7891 43.7942C48.1256 43.1052 48.5115 42.4421 48.947 41.805C49.3824 41.1692 49.9428 40.5828 50.6294 40.0484C51.3185 39.5115 52.0817 39.0414 52.9205 38.6381C54.6981 37.7672 56.8605 37.3318 59.4077 37.3318C64.5366 37.3318 68.7203 39.034 71.9565 42.4384C75.1927 45.8404 76.8108 50.1899 76.8108 55.487C76.8108 60.7817 74.8983 65.1807 71.0757 68.6841C67.2519 72.1875 62.4063 73.9392 56.5377 73.9392C50.6715 73.9392 45.8024 72.1962 41.9303 68.7089C38.0608 65.2228 36.126 60.6964 36.126 55.1308C36.126 51.5457 36.9635 48.3615 38.6397 45.5806C40.3147 42.7972 42.7121 40.6162 45.8296 39.0389L46.1314 39.4942C43.9542 40.9366 42.3868 43.0149 41.4305 45.729C40.473 48.4444 39.9955 51.328 39.9955 54.3786C39.9955 60.0432 41.5369 64.4682 44.6222 67.6549C47.7062 70.8391 51.6611 72.43 56.4882 72.43C61.3177 72.43 65.2664 70.8304 68.3344 67.6301C71.4023 64.4274 72.9363 60.2114 72.9363 54.9823C72.9363 50.4571 71.7202 46.6346 69.2894 43.5171C66.8573 40.3997 63.4306 38.841 59.0069 38.841C57.0275 38.841 55.2338 39.1923 53.6281 39.895C50.7086 41.1358 48.78 43.1807 47.8435 46.0309C47.5726 46.8696 47.4378 47.5896 47.4378 48.1933C47.4378 48.797 47.4724 49.2844 47.5417 49.653L47.0369 49.752Z" fill="#D5AC5B"/>
<path d="M13.4629 35.4813C14.4328 32.6311 16.0595 30.6703 18.3419 29.5978C20.6206 28.5227 24.6609 27.9846 30.4603 27.9846C31.6676 27.9846 34.717 28.0366 39.6096 28.138C43.165 28.237 46.301 29.0077 49.0163 30.4489C51.7305 31.8913 53.8508 33.9275 55.3749 36.56C56.9014 39.1925 57.6659 42.253 57.6659 45.7391C57.6659 51.004 55.9984 55.2546 52.6632 58.4908C49.3281 61.7245 44.976 63.3401 39.6096 63.3401H22.5628L22.6123 62.8354H23.216C24.0535 62.8354 24.7747 62.5608 25.3784 62.009C25.9821 61.4548 26.3346 60.7757 26.4373 59.9703V29.6472C22.2436 29.7462 19.2771 30.3994 17.5353 31.6068C16.6323 32.2439 15.9457 32.8562 15.4768 33.4426C15.0055 34.0302 14.5169 34.7761 14.0122 35.6792L13.4629 35.4813ZM29.7032 29.6472V61.8309H39.6096C43.8676 61.8309 47.3141 60.3563 49.9466 57.4071C52.5791 54.4555 53.8953 50.5661 53.8953 45.7391C53.8953 42.5524 53.2991 39.7455 52.109 37.3171C50.9177 34.8862 49.2402 33.0009 47.0766 31.6612C44.9154 30.319 42.4264 29.6472 39.6096 29.6472H29.7032Z" fill="black"/>
<path d="M52.4878 38.8753L53.9394 38.2388L56.1533 37.5779L56.6508 38.9834L54.9395 39.2389L52.9853 40.2808L52.4878 38.8753Z" fill="#D5AC5B"/>
</svg>
