<svg width="61" height="61" viewBox="0 0 61 61" fill="none" xmlns="http://www.w3.org/2000/svg">
<path d="M31.6629 7.02608C31.3087 6.71125 30.8513 6.53735 30.3774 6.53735C29.9035 6.53735 29.4461 6.71125 29.0919 7.02608C27.2482 8.65881 25.7778 10.6695 24.7807 12.9214C23.7837 15.1733 23.2834 17.6135 23.3139 20.0761C23.3168 20.3341 23.3863 20.5871 23.5156 20.8104C23.6449 21.0338 23.8296 21.22 24.0519 21.3511C25.9958 22.501 27.7529 23.9405 29.2629 25.6201C29.4036 25.7762 29.5754 25.9011 29.7674 25.9865C29.9594 26.072 30.1672 26.1161 30.3774 26.1161C30.5876 26.1161 30.7954 26.072 30.9874 25.9865C31.1793 25.9011 31.3512 25.7762 31.4919 25.6201C33.0023 23.9427 34.7595 22.5052 36.7029 21.3571C36.9246 21.2256 37.1088 21.0392 37.2375 20.8159C37.3663 20.5926 37.4353 20.3398 37.4379 20.0821C37.4692 17.6193 36.9696 15.1786 35.973 12.9262C34.9765 10.6737 33.5064 8.66242 31.6629 7.02908M9.4269 37.0171C9.40345 36.7557 9.43197 36.4923 9.5108 36.2419C9.58963 35.9916 9.71722 35.7594 9.88621 35.5586C10.0552 35.3578 10.2623 35.1925 10.4954 35.0721C10.7286 34.9517 10.9833 34.8786 11.2449 34.8571C15.2388 34.5247 19.2361 35.4576 22.6702 37.5236C26.1044 39.5896 28.8013 42.6839 30.3789 46.3681C31.9558 42.6839 34.6521 39.5893 38.0857 37.5228C41.5193 35.4563 45.5161 34.5226 49.5099 34.8541C50.6079 34.9441 51.4299 35.9101 51.3279 37.0141C50.8966 41.7627 48.7052 46.1783 45.1841 49.3935C41.6631 52.6087 37.067 54.3909 32.2989 54.3901H30.9039C30.7255 54.3898 30.5479 54.3656 30.3759 54.3181C30.2029 54.3659 30.0243 54.3901 29.8449 54.3901H28.4499C23.6823 54.3902 19.087 52.6076 15.5666 49.3925C12.0462 46.1774 9.85514 41.7621 9.4239 37.0141M30.3789 32.8681C28.8018 29.1833 26.1051 26.0884 22.6709 24.0218C19.2367 21.9553 15.2392 21.0219 11.2449 21.3541C10.9833 21.3756 10.7286 21.4487 10.4954 21.5691C10.2623 21.6895 10.0552 21.8548 9.88621 22.0556C9.71722 22.2564 9.58963 22.4886 9.5108 22.7389C9.43197 22.9893 9.40345 23.2527 9.4269 23.5141C9.6634 26.1462 10.445 28.7003 11.7219 31.0141C11.8507 31.247 12.0392 31.4415 12.268 31.5775C12.4968 31.7135 12.7577 31.7862 13.0239 31.7881C16.0577 31.8141 19.0535 32.4653 21.8243 33.701C24.5951 34.9367 27.0814 36.7304 29.1279 38.9701C29.2849 39.1416 29.4797 39.2742 29.6968 39.3575C29.9139 39.4408 30.1474 39.4725 30.3789 39.4501C30.6099 39.472 30.8428 39.4401 31.0593 39.3568C31.2759 39.2735 31.4702 39.1412 31.6269 38.9701C33.6734 36.7304 36.1597 34.9367 38.9305 33.701C41.7013 32.4653 44.6971 31.8141 47.7309 31.7881C47.9974 31.7859 48.2585 31.7128 48.4873 31.5762C48.7161 31.4396 48.9045 31.2446 49.0329 31.0111C50.3094 28.6982 51.091 26.1452 51.3279 23.5141C51.3513 23.2527 51.3228 22.9893 51.244 22.7389C51.1652 22.4886 51.0376 22.2564 50.8686 22.0556C50.6996 21.8548 50.4925 21.6895 50.2593 21.5691C50.0262 21.4487 49.7715 21.3756 49.5099 21.3541C45.5161 21.0226 41.5193 21.9563 38.0857 24.0228C34.6521 26.0893 31.9558 29.1839 30.3789 32.8681Z" fill="#D5AC5B"/>
</svg>
