<svg width="57" height="57" viewBox="0 0 57 57" fill="none" xmlns="http://www.w3.org/2000/svg">
<path d="M26.7188 0C29.1865 0 31.5522 0.31543 33.8159 0.946289C36.0796 1.57715 38.2134 2.46777 40.2173 3.61816C42.2212 4.76855 44.021 6.16016 45.6167 7.79297C47.2124 9.42578 48.604 11.2349 49.7915 13.2202C50.979 15.2056 51.8789 17.3301 52.4912 19.5938C53.1035 21.8574 53.4189 24.2324 53.4375 26.7188C53.4375 29.1865 53.1221 31.5522 52.4912 33.8159C51.8604 36.0796 50.9697 38.2134 49.8193 40.2173C48.6689 42.2212 47.2773 44.021 45.6445 45.6167C44.0117 47.2124 42.2026 48.604 40.2173 49.7915C38.2319 50.979 36.1074 51.8789 33.8438 52.4912C31.5801 53.1035 29.2051 53.4189 26.7188 53.4375C24.251 53.4375 21.8853 53.1221 19.6216 52.4912C17.3579 51.8604 15.2241 50.9697 13.2202 49.8193C11.2163 48.6689 9.4165 47.2773 7.8208 45.6445C6.2251 44.0117 4.8335 42.2026 3.646 40.2173C2.4585 38.2319 1.55859 36.1074 0.946289 33.8438C0.333984 31.5801 0.0185547 29.2051 0 26.7188C0 24.251 0.31543 21.8853 0.946289 19.6216C1.57715 17.3579 2.46777 15.2241 3.61816 13.2202C4.76855 11.2163 6.16016 9.4165 7.79297 7.8208C9.42578 6.2251 11.2349 4.8335 13.2202 3.646C15.2056 2.4585 17.3301 1.55859 19.5938 0.946289C21.8574 0.333984 24.2324 0.0185547 26.7188 0ZM26.7188 49.875C28.8525 49.875 30.9028 49.5967 32.8696 49.04C34.8364 48.4834 36.6733 47.7041 38.3804 46.7021C40.0874 45.7002 41.6553 44.4941 43.084 43.084C44.5127 41.6738 45.7188 40.1152 46.7021 38.4082C47.6855 36.7012 48.4648 34.855 49.04 32.8696C49.6152 30.8843 49.8936 28.834 49.875 26.7188C49.875 24.585 49.5967 22.5347 49.04 20.5679C48.4834 18.6011 47.7041 16.7642 46.7021 15.0571C45.7002 13.3501 44.4941 11.7822 43.084 10.3535C41.6738 8.9248 40.1152 7.71875 38.4082 6.73535C36.7012 5.75195 34.855 4.97266 32.8696 4.39746C30.8843 3.82227 28.834 3.54395 26.7188 3.5625C24.585 3.5625 22.5347 3.84082 20.5679 4.39746C18.6011 4.9541 16.7642 5.7334 15.0571 6.73535C13.3501 7.7373 11.7822 8.94336 10.3535 10.3535C8.9248 11.7637 7.71875 13.3223 6.73535 15.0293C5.75195 16.7363 4.97266 18.5825 4.39746 20.5679C3.82227 22.5532 3.54395 24.6035 3.5625 26.7188C3.5625 28.8525 3.84082 30.9028 4.39746 32.8696C4.9541 34.8364 5.7334 36.6733 6.73535 38.3804C7.7373 40.0874 8.94336 41.6553 10.3535 43.084C11.7637 44.5127 13.3223 45.7188 15.0293 46.7021C16.7363 47.6855 18.5825 48.4648 20.5679 49.04C22.5532 49.6152 24.6035 49.8936 26.7188 49.875ZM20.2339 24.9375H39.1875V28.5H20.2339L27.9712 36.126L25.4663 38.6865L13.3872 26.7188L25.4663 14.751L27.9712 17.3115L20.2339 24.9375Z" fill="#D5AC5B"/>
</svg>
