<svg width="56" height="65" viewBox="0 0 56 65" fill="none" xmlns="http://www.w3.org/2000/svg">
<path d="M34.9007 61.7952H30.2474V56.4669H34.9007V61.7952ZM44.2075 56.4669H39.5541V61.7952H44.2075V56.4669ZM34.9007 45.8104H30.2474V51.1386H34.9007V45.8104ZM16.2873 56.4669H11.6339V61.7952H16.2873V56.4669ZM16.2873 45.8104H11.6339V51.1386H16.2873V45.8104ZM44.2075 45.8104H39.5541V51.1386H44.2075V45.8104ZM34.9007 35.1538H30.2474V40.4821H34.9007V35.1538ZM44.2075 35.1538H39.5541V40.4821H44.2075V35.1538ZM48.8608 24.4972C50.095 24.4972 51.2786 25.0586 52.1513 26.0578C53.0239 27.0571 53.5142 28.4124 53.5142 29.8255V61.7952H48.8608V29.8255H25.594V61.7952H20.9406V40.4821H6.98052V61.7952H2.32715V40.4821C2.32715 39.0689 2.81741 37.7137 3.69009 36.7144C4.56276 35.7152 5.74637 35.1538 6.98052 35.1538H20.9406V29.8255C20.9406 28.4124 21.4309 27.0571 22.3036 26.0578C23.1762 25.0586 24.3598 24.4972 25.594 24.4972V19.1689C25.594 17.7558 26.0843 16.4005 26.9569 15.4013C27.8296 14.402 29.0132 13.8407 30.2474 13.8407H34.9007V3.18408H39.5541V13.8407H44.2075C45.4416 13.8407 46.6252 14.402 47.4979 15.4013C48.3706 16.4005 48.8608 17.7558 48.8608 19.1689V24.4972ZM44.2075 24.4972V19.1689H30.2474V24.4972H44.2075Z" fill="#D5AC5B"/>
</svg>
