<svg width="30" height="30" viewBox="0 0 30 30" fill="none" xmlns="http://www.w3.org/2000/svg">
<path d="M18.5363 14.935L20.3038 13.1675L15 7.86255L9.69629 13.1663L11.465 14.9338L13.75 12.65V22.0713H16.25V12.65L18.5363 14.935Z" fill="#663C3B"/>
<path fill-rule="evenodd" clip-rule="evenodd" d="M24.7225 5.2775C19.3525 -0.0924999 10.6475 -0.0924999 5.2775 5.2775C-0.0924999 10.6475 -0.0924999 19.3525 5.2775 24.7225C10.6475 30.0925 19.3525 30.0925 24.7225 24.7225C30.0925 19.3525 30.0925 10.6475 24.7225 5.2775ZM22.955 7.045C20.8452 4.9352 17.9837 3.74993 15 3.74993C12.0163 3.74993 9.1548 4.9352 7.045 7.045C4.9352 9.1548 3.74993 12.0163 3.74993 15C3.74993 17.9837 4.9352 20.8452 7.045 22.955C9.1548 25.0648 12.0163 26.2501 15 26.2501C17.9837 26.2501 20.8452 25.0648 22.955 22.955C25.0648 20.8452 26.2501 17.9837 26.2501 15C26.2501 12.0163 25.0648 9.1548 22.955 7.045Z" fill="#663C3B"/>
</svg>
