<svg width="50" height="50" viewBox="0 0 50 50" fill="none" xmlns="http://www.w3.org/2000/svg">
<path d="M25.1875 12.375C23.6423 12.375 22.1319 12.8332 20.8471 13.6916C19.5623 14.5501 18.561 15.7702 17.9697 17.1978C17.3784 18.6253 17.2237 20.1962 17.5251 21.7116C17.8266 23.2271 18.5706 24.6192 19.6632 25.7118C20.7558 26.8044 22.1479 27.5484 23.6634 27.8499C25.1788 28.1513 26.7497 27.9966 28.1772 27.4053C29.6048 26.814 30.8249 25.8127 31.6834 24.5279C32.5418 23.2431 33 21.7327 33 20.1875C33 18.1155 32.1769 16.1284 30.7118 14.6632C29.2466 13.1981 27.2595 12.375 25.1875 12.375ZM25.1875 24.875C24.2604 24.875 23.3541 24.6001 22.5833 24.085C21.8124 23.5699 21.2116 22.8379 20.8568 21.9813C20.502 21.1248 20.4092 20.1823 20.5901 19.273C20.7709 18.3637 21.2174 17.5285 21.8729 16.8729C22.5285 16.2174 23.3637 15.7709 24.273 15.5901C25.1823 15.4092 26.1248 15.502 26.9813 15.8568C27.8379 16.2116 28.5699 16.8124 29.085 17.5833C29.6001 18.3541 29.875 19.2604 29.875 20.1875C29.875 21.4307 29.3811 22.623 28.5021 23.5021C27.623 24.3811 26.4307 24.875 25.1875 24.875ZM25.1875 3C20.6307 3.00517 16.262 4.81765 13.0398 8.03981C9.81765 11.262 8.00517 15.6307 8 20.1875C8 26.3203 10.834 32.8203 16.2031 38.9863C18.6157 41.7726 21.331 44.2815 24.2988 46.4668C24.5615 46.6508 24.8745 46.7496 25.1953 46.7496C25.5161 46.7496 25.8291 46.6508 26.0918 46.4668C29.0542 44.2806 31.7642 41.7717 34.1719 38.9863C39.5332 32.8203 42.375 26.3203 42.375 20.1875C42.3698 15.6307 40.5574 11.262 37.3352 8.03981C34.113 4.81765 29.7443 3.00517 25.1875 3ZM25.1875 43.2344C21.959 40.6953 11.125 31.3691 11.125 20.1875C11.125 16.4579 12.6066 12.881 15.2438 10.2438C17.881 7.60658 21.4579 6.125 25.1875 6.125C28.9171 6.125 32.494 7.60658 35.1312 10.2438C37.7684 12.881 39.25 16.4579 39.25 20.1875C39.25 31.3652 28.416 40.6953 25.1875 43.2344Z" fill="#D5AC5B"/>
</svg>
