<svg width="71" height="71" viewBox="0 0 71 71" fill="none" xmlns="http://www.w3.org/2000/svg">
<path d="M22.097 48.6136C21.804 48.3206 21.6394 47.9231 21.6394 47.5087C21.6394 47.0943 21.804 46.6969 22.097 46.4039L43.737 24.7639L27.6213 24.7653C27.416 24.7653 27.2127 24.7249 27.023 24.6463C26.8334 24.5677 26.661 24.4526 26.5158 24.3074C26.3707 24.1622 26.2555 23.9899 26.1769 23.8002C26.0984 23.6105 26.0579 23.4073 26.0579 23.2019C26.0579 22.9966 26.0984 22.7934 26.1769 22.6037C26.2555 22.414 26.3707 22.2417 26.5158 22.0965C26.661 21.9513 26.8334 21.8362 27.023 21.7576C27.2127 21.679 27.416 21.6386 27.6213 21.6386L47.5087 21.6386C47.714 21.6385 47.9174 21.6788 48.1071 21.7574C48.2968 21.8359 48.4692 21.951 48.6144 22.0962C48.7596 22.2414 48.8748 22.4138 48.9533 22.6035C49.0318 22.7933 49.0722 22.9966 49.0721 23.202L49.0721 43.0893C49.0721 43.504 48.9074 43.9016 48.6142 44.1948C48.321 44.488 47.9233 44.6527 47.5087 44.6527C47.0941 44.6527 46.6964 44.488 46.4032 44.1948C46.11 43.9016 45.9453 43.504 45.9453 43.0893L45.9467 26.9736L24.3068 48.6136C24.0137 48.9066 23.6163 49.0712 23.2019 49.0712C22.7875 49.0712 22.3901 48.9066 22.097 48.6136Z" fill="#D5AC5B"/>
</svg>
